<?xml version="1.0" standalone="no"?><!DOCTYPE svg PUBLIC "-//W3C//DTD SVG 1.1//EN"
        "http://www.w3.org/Graphics/SVG/1.1/DTD/svg11.dtd">
<svg t="1589987385566" class="icon" viewBox="0 0 1024 1024" version="1.1" xmlns="http://www.w3.org/2000/svg" p-id="2293"
     xmlns:xlink="http://www.w3.org/1999/xlink" width="200" height="200">
    <defs>
        <style type="text/css"></style>
    </defs>
    <path d="M480.768 398.82752L230.13376 649.46176a31.49824 31.49824 0 0 1-44.52352-44.52352l293.888-293.888c1.80224-1.80224 3.76832-3.35872 5.85728-4.62848a31.49824 31.49824 0 0 1 49.152-5.87776l304.39424 304.39424a31.49824 31.49824 0 0 1-44.52352 44.52352L543.744 398.82752v480.27648a31.49824 31.49824 0 0 1-62.976 0v-480.256zM207.872 249.344a31.49824 31.49824 0 0 1 0-62.976h608.768a31.49824 31.49824 0 0 1 0 62.976H207.872z"
          fill="#ffffff" p-id="2294"></path>
</svg>