<?xml version="1.0" standalone="no"?><!DOCTYPE svg PUBLIC "-//W3C//DTD SVG 1.1//EN" "http://www.w3.org/Graphics/SVG/1.1/DTD/svg11.dtd"><svg t="1589637399470" class="icon" viewBox="0 0 1024 1024" version="1.1" xmlns="http://www.w3.org/2000/svg" p-id="6045" xmlns:xlink="http://www.w3.org/1999/xlink" width="200" height="200"><defs><style type="text/css"></style></defs><path d="M996.926905 254.805599c-19.11042-22.29549-44.59098-35.03577-73.25661-31.8507H326.469673c-19.11042 0-35.03577 12.74028-35.035769 31.8507v3.18507c0 19.11042 12.74028 35.03577 31.850699 35.03577h598.793157c6.37014 0 12.74028 3.18507 19.11042 6.37014 6.37014 6.37014 6.37014 15.92535 3.18507 22.295489l-54.146189 382.208399c0 9.55521-15.92535 22.29549-28.66563 22.295489H307.359253c-15.92535 0-28.66563-19.11042-28.665629-31.850699l-60.51633-423.614308-31.8507-178.363919C179.956454 41.40591 135.365474 0 81.219285 0H36.628305C17.517885 0 1.592535 19.11042 1.592535 38.22084s15.92535 35.03577 35.03577 35.03577h44.59098c15.92535 0 28.66563 12.74028 31.850699 28.66563l31.8507 178.363919L202.251944 703.900467c6.37014 54.14619 50.96112 98.73717 101.92224 98.737169h554.202177c50.96112 0 95.5521-35.03577 101.922239-82.81182L1019.222395 334.432348c3.18507-28.66563-3.18507-57.33126-22.29549-79.626749zM221.362364 950.74339c0 41.40591 31.8507 73.25661 73.25661 73.25661s73.25661-31.8507 73.256609-73.25661-31.8507-73.25661-73.256609-73.256609-73.25661 35.03577-73.25661 73.256609z m576.497667 0c0 41.40591 31.8507 73.25661 73.25661 73.25661s73.25661-31.8507 73.256609-73.25661-31.8507-73.25661-73.256609-73.256609-73.25661 35.03577-73.25661 73.256609z m-19.11042-401.318818c19.11042 0 35.03577-15.92535 35.03577-35.03577s-15.92535-35.03577-35.03577-35.035769H371.060653c-19.11042 0-35.03577 15.92535-35.03577 35.035769s15.92535 35.03577 35.03577 35.03577h407.688958z" fill="#1afa29" p-id="6046"></path></svg>